<?xml version="1.0" encoding="UTF-8"?>
<svg id="Layer_1" xmlns="http://www.w3.org/2000/svg" xmlns:xlink="http://www.w3.org/1999/xlink" version="1.1" viewBox="0 0 1929.62633 900.986503">
  <!-- Generator: Adobe Illustrator 30.3.0, SVG Export Plug-In . SVG Version: 2.1.3 Build 182)  -->
  <defs>
    <style>
      .st0 {
        fill: url(#linear-gradient4);
      }

      .st1 {
        fill: url(#linear-gradient);
      }

      .st1, .st2, .st3, .st4 {
        fill-rule: evenodd;
      }

      .st2 {
        fill: url(#linear-gradient1);
      }

      .st3 {
        fill: url(#linear-gradient2);
      }

      .st4 {
        fill: url(#linear-gradient3);
      }
    </style>
    <linearGradient id="linear-gradient" x1="640.83627" y1="310.959025" x2="871.218842" y2="310.959025" gradientUnits="userSpaceOnUse">
      <stop offset="0" stop-color="#5a6aec"/>
      <stop offset="1" stop-color="#ca91f5"/>
    </linearGradient>
    <linearGradient id="linear-gradient1" x1="990.116655" x2="1220.499227" xlink:href="#linear-gradient"/>
    <linearGradient id="linear-gradient2" x1="1339.399728" x2="1569.7823" xlink:href="#linear-gradient"/>
    <linearGradient id="linear-gradient3" x1="77.519393" y1="226.920998" x2="1869.962623" y2="226.920998" xlink:href="#linear-gradient"/>
    <linearGradient id="linear-gradient4" x1="60.741445" y1="652.683381" x2="1858.882205" y2="652.683381" xlink:href="#linear-gradient"/>
  </defs>
  <g>
    <path class="st1" d="M797.385304,235.544683c-66.498431-39.111265-125.761205-9.814134-156.549034,45.150732,46.482109-42.891886,100.265727-43.172902,139.2313,3.056647,26.687533,31.648856,38.773393,71.838937,36.245482,120.554765h54.90579c-3.421616-73.870351-31.052581-143.595713-73.833538-168.762144Z"/>
    <path class="st2" d="M1146.665689,235.544683c-66.498431-39.111265-125.766581-9.814134-156.549034,45.150732,46.483453-42.891886,100.265727-43.172902,139.2313,3.056647,26.688877,31.648856,38.773393,71.838937,36.249514,120.554765h54.901758c-3.421616-73.870351-31.052581-143.595713-73.833538-168.762144Z"/>
    <path class="st3" d="M1495.946074,235.544683c-66.495743-39.111265-125.765237-9.814134-156.546346,45.150732,46.483453-42.891886,100.263039-43.172902,139.232644,3.056647,26.687533,31.648856,38.770705,71.838937,36.245482,120.554765h54.904446c-3.432368-73.870351-31.063332-143.595713-73.836226-168.762144Z"/>
    <path class="st4" d="M1869.962623,347.04382C1206.905491-70.64987,609.423519-51.563391,77.519393,404.306828l105.023199,2.071899h212.384815c296.620283-340.092729,788.274049-359.896037,1475.035215-59.334907Z"/>
  </g>
  <path class="st0" d="M182.010638,783.281917c-93.749962,0-121.269193-28.918265-121.269193-109.141783v-225.281188h69.495141v81.622552h140.394225c94.216306,0,121.735538,28.918265,121.735538,109.608128v34.050508c0,80.223518-27.519232,109.141783-121.735538,109.141783h-88.620173ZM322.868753,642.423803c0-43.843742-10.725922-52.240397-54.569664-52.240397h-138.062503v82.557695c0,41.509565,10.262032,51.771598,54.105774,51.771598h83.956728c43.843742,0,54.569664-10.262032,54.569664-52.237942v-29.850954ZM442.763457,783.281917v-146.456703c0-75.560074,33.115365-106.343716,118.471127-106.343716h45.242775v56.437497h-43.377397c-38.713953,0-50.838909,10.262032-50.838909,50.372564v145.990358h-69.497596ZM671.785218,516.022366c-17.257199,0-23.786022-6.528822-23.786022-21.454299v-27.052887c0-14.925477,6.528822-20.990409,23.786022-20.990409h22.855787c17.723544,0,24.25482,6.064932,24.25482,20.990409v27.052887c0,14.925477-6.531277,21.454299-24.25482,21.454299h-22.855787ZM647.999197,783.281917v-246.269142h70.896629v246.269142h-70.896629ZM893.345468,783.281917c-94.685105,0-122.201882-28.918265-122.201882-109.141783v-34.050508c0-80.689863,27.516777-109.608128,122.201882-109.608128h140.39177v-81.622552h69.497596v225.281188c0,80.223518-27.519232,109.141783-121.735538,109.141783h-88.153828ZM840.638727,672.274757c0,44.310086,12.12741,52.237942,61.567286,52.237942h77.427906c43.843742,0,54.10332-9.795688,54.10332-51.771598v-82.557695h-131.99757c-48.973531,0-61.100941,6.997621-61.100941,52.240397v29.850954ZM1287.958781,858.841991v-56.903841h96.548028c20.524065,0,28.451921-6.995167,28.451921-27.052887v-20.52161h-158.581659c-77.427906,0-105.877372-23.322132-105.877372-84.423073v-38.711498c0-76.959107,22.853333-100.747583,109.141783-100.747583h112.872539c83.490384,0,110.076926,28.918265,110.076926,100.747583v147.389392c0,56.435042-26.586543,80.223518-89.552862,80.223518h-103.079305ZM1412.95873,632.628115c0-33.58171-11.192267-42.911053-45.242775-42.911053h-109.141783c-32.182676,0-41.978364,9.795688-41.978364,43.377397v33.115365c0,27.052887,9.795688,34.048054,41.978364,34.048054h154.384558v-67.629763ZM1789.384609,783.281917v-140.858115c0-41.978364-11.661066-52.240397-56.437497-52.240397h-75.560074c-43.843742,0-56.437497,10.262032-56.437497,52.240397v140.858115h-69.495141v-143.192292c0-80.689863,27.519232-109.608128,121.269193-109.608128h84.423073c94.216306,0,121.735538,28.918265,121.735538,109.608128v143.192292h-69.497596Z"/>
</svg>