<?xml version="1.0" encoding="UTF-8"?>
<svg id="Layer_1" xmlns="http://www.w3.org/2000/svg" version="1.1" viewBox="0 0 1918.443989 446.52477">
  <!-- Generator: Adobe Illustrator 30.3.0, SVG Export Plug-In . SVG Version: 2.1.3 Build 182)  -->
  <defs>
    <style>
      .st0 {
        fill: #1b2951;
        fill-rule: evenodd;
      }
    </style>
  </defs>
  <path class="st0" d="M797.385304,235.544683c-66.498431-39.111265-125.761205-9.814134-156.549034,45.150732,46.482109-42.891886,100.265727-43.172902,139.2313,3.056647,26.687533,31.648856,38.773393,71.838937,36.245482,120.554765h54.90579c-3.421616-73.870351-31.052581-143.595713-73.833538-168.762144Z"/>
  <path class="st0" d="M1146.665689,235.544683c-66.498431-39.111265-125.766581-9.814134-156.549034,45.150732,46.483453-42.891886,100.265727-43.172902,139.2313,3.056647,26.688877,31.648856,38.773393,71.838937,36.249514,120.554765h54.901758c-3.421616-73.870351-31.052581-143.595713-73.833538-168.762144Z"/>
  <path class="st0" d="M1495.946074,235.544683c-66.495743-39.111265-125.765237-9.814134-156.546346,45.150732,46.483453-42.891886,100.263039-43.172902,139.232644,3.056647,26.687533,31.648856,38.770705,71.838937,36.245482,120.554765h54.904446c-3.432368-73.870351-31.063332-143.595713-73.836226-168.762144Z"/>
  <path class="st0" d="M1869.962623,347.04382C1206.905491-70.64987,609.423519-51.563391,77.519393,404.306828l105.023199,2.071899h212.384815c296.620283-340.092729,788.274049-359.896037,1475.035215-59.334907Z"/>
</svg>