<?xml version="1.0" encoding="UTF-8"?>
<svg id="Layer_1" xmlns="http://www.w3.org/2000/svg" xmlns:xlink="http://www.w3.org/1999/xlink" version="1.1" viewBox="0 0 3564.729191 446.52477">
  <!-- Generator: Adobe Illustrator 30.3.0, SVG Export Plug-In . SVG Version: 2.1.3 Build 182)  -->
  <defs>
    <style>
      .st0 {
        fill: url(#linear-gradient4);
      }

      .st1 {
        fill: url(#linear-gradient);
      }

      .st1, .st2, .st3, .st4 {
        fill-rule: evenodd;
      }

      .st2 {
        fill: url(#linear-gradient1);
      }

      .st3 {
        fill: url(#linear-gradient2);
      }

      .st4 {
        fill: url(#linear-gradient3);
      }
    </style>
    <linearGradient id="linear-gradient" x1="640.83627" y1="310.959025" x2="871.218842" y2="310.959025" gradientUnits="userSpaceOnUse">
      <stop offset="0" stop-color="#0c49ff"/>
      <stop offset="1" stop-color="#cea9ff"/>
    </linearGradient>
    <linearGradient id="linear-gradient1" x1="990.116655" x2="1220.499227" xlink:href="#linear-gradient"/>
    <linearGradient id="linear-gradient2" x1="1339.399728" x2="1569.7823" xlink:href="#linear-gradient"/>
    <linearGradient id="linear-gradient3" x1="77.519393" y1="226.920998" x2="1869.962623" y2="226.920998" xlink:href="#linear-gradient"/>
    <linearGradient id="linear-gradient4" x1="1918.443989" y1="226.920998" x2="3483.696373" y2="226.920998" xlink:href="#linear-gradient"/>
  </defs>
  <g>
    <path class="st1" d="M797.385304,235.544683c-66.498431-39.111265-125.761205-9.814134-156.549034,45.150732,46.482109-42.891886,100.265727-43.172902,139.2313,3.056647,26.687533,31.648856,38.773393,71.838937,36.245482,120.554765h54.90579c-3.421616-73.870351-31.052581-143.595713-73.833538-168.762144Z"/>
    <path class="st2" d="M1146.665689,235.544683c-66.498431-39.111265-125.766581-9.814134-156.549034,45.150732,46.483453-42.891886,100.265727-43.172902,139.2313,3.056647,26.688877,31.648856,38.773393,71.838937,36.249514,120.554765h54.901758c-3.421616-73.870351-31.052581-143.595713-73.833538-168.762144Z"/>
    <path class="st3" d="M1495.946074,235.544683c-66.495743-39.111265-125.765237-9.814134-156.546346,45.150732,46.483453-42.891886,100.263039-43.172902,139.232644,3.056647,26.687533,31.648856,38.770705,71.838937,36.245482,120.554765h54.904446c-3.432368-73.870351-31.063332-143.595713-73.836226-168.762144Z"/>
    <path class="st4" d="M1869.962623,347.04382C1206.905491-70.64987,609.423519-51.563391,77.519393,404.306828l105.023199,2.071899h212.384815c296.620283-340.092729,788.274049-359.896037,1475.035215-59.334907Z"/>
  </g>
  <path class="st0" d="M2024.006856,340.604908c-81.607822,0-105.562867-25.172881-105.562867-95.006153V49.495133h60.494394v71.051108h122.210897c82.013767,0,105.968812,25.172881,105.968812,95.412098v29.640416c0,69.833272-23.955045,95.006153-105.968812,95.006153h-77.142424ZM2146.621562,217.990202c0-38.165267-9.336742-45.474418-47.502008-45.474418h-120.181171v71.865135c0,36.133404,8.932933,45.066337,47.0982,45.066337h73.082971c38.165267,0,47.502008-8.932933,47.502008-45.472282v-25.984771ZM2250.987958,340.604908v-127.488186c0-65.773819,28.826388-92.570481,103.127195-92.570481h39.383103v49.127926h-37.759321c-33.699868,0-44.254446,8.932933-44.254446,43.848501v127.08224h-60.496531ZM2450.347689,107.9598c-15.022112,0-20.705346-5.683234-20.705346-18.67562v-23.5491c0-12.992386,5.683234-18.271811,20.705346-18.271811h19.895592c15.428057,0,21.113428,5.279425,21.113428,18.271811v23.5491c0,12.992386-5.685371,18.67562-21.113428,18.67562h-19.895592ZM2429.642343,340.604908V126.231611h61.714366v214.373297h-61.714366ZM2643.212295,340.604908c-82.421849,0-106.374758-25.172881-106.374758-95.006153v-29.640416c0-70.239217,23.952908-95.412098,106.374758-95.412098h122.20876V49.495133h60.496531v196.103622c0,69.833272-23.955045,95.006153-105.968812,95.006153h-76.736479ZM2597.331931,243.974973c0,38.571212,10.556714,45.472282,53.593324,45.472282h67.399737c38.165267,0,47.096063-8.526988,47.096063-45.066337v-71.865135h-114.901745c-42.630665,0-53.187379,6.091316-53.187379,45.474418v25.984771ZM2986.716787,406.378727v-49.533871h84.043494c17.865866,0,24.766936-6.089179,24.766936-23.5491v-17.863729h-138.042763c-67.399737,0-92.164536-20.301537-92.164536-73.488916v-33.697732c0-66.991655,19.893456-87.699138,95.006153-87.699138h98.253715c72.677026,0,95.82018,25.172881,95.82018,87.699138v128.300076c0,49.125789-23.143154,69.833272-77.954314,69.833272h-89.728864ZM3095.527217,209.463214c0-29.232334-9.742687-37.353376-39.383103-37.353376h-95.006153c-28.014498,0-36.541486,8.526988-36.541486,37.759321v28.826388c0,23.5491,8.526988,29.638279,36.541486,29.638279h134.389256v-58.870613ZM3423.199843,340.604908v-122.614706c0-36.541486-10.150769-45.474418-49.127926-45.474418h-65.773819c-38.165267,0-49.127926,8.932933-49.127926,45.474418v122.614706h-60.494394v-124.646569c0-70.239217,23.955045-95.412098,105.562867-95.412098h73.488916c82.013767,0,105.968812,25.172881,105.968812,95.412098v124.646569h-60.496531Z"/>
</svg>